<mxfile host="app.diagrams.net" modified="2023-09-13T07:59:53.838Z" agent="Mozilla/5.0 (Macintosh; Intel Mac OS X 10_15_7) AppleWebKit/537.36 (KHTML, like Gecko) Chrome/115.0.0.0 Safari/537.36" etag="DYFhUpiVriAZ5mJ1G39B" version="21.3.5" type="github">
  <diagram name="第 1 页" id="RJZACQ4GHc-sYOY2gze5">
    <mxGraphModel dx="1793" dy="986" grid="1" gridSize="10" guides="1" tooltips="1" connect="1" arrows="1" fold="1" page="1" pageScale="1" pageWidth="160000" pageHeight="160000" math="0" shadow="0">
      <root>
        <mxCell id="0" />
        <mxCell id="1" parent="0" />
        <mxCell id="11f8AV2FICEe3owmwWPE-1" value="端内H5领券流程" style="swimlane;html=1;childLayout=stackLayout;startSize=20;rounded=0;shadow=0;labelBackgroundColor=none;strokeWidth=1;fontFamily=Verdana;fontSize=12;align=center;" vertex="1" parent="1">
          <mxGeometry x="50" y="70" width="600" height="1470" as="geometry" />
        </mxCell>
        <mxCell id="11f8AV2FICEe3owmwWPE-12" style="edgeStyle=orthogonalEdgeStyle;rounded=1;html=1;labelBackgroundColor=none;startArrow=none;startFill=0;startSize=5;endArrow=classicThin;endFill=1;endSize=5;jettySize=auto;orthogonalLoop=1;strokeWidth=1;fontFamily=Verdana;fontSize=8;exitX=1;exitY=0.5;exitDx=0;exitDy=0;" edge="1" parent="11f8AV2FICEe3owmwWPE-1" source="11f8AV2FICEe3owmwWPE-3" target="11f8AV2FICEe3owmwWPE-16">
          <mxGeometry relative="1" as="geometry">
            <mxPoint x="120" y="115" as="sourcePoint" />
          </mxGeometry>
        </mxCell>
        <mxCell id="11f8AV2FICEe3owmwWPE-2" value="H5" style="swimlane;html=1;startSize=20;" vertex="1" parent="11f8AV2FICEe3owmwWPE-1">
          <mxGeometry y="20" width="170" height="1450" as="geometry">
            <mxRectangle y="20" width="40" height="1450" as="alternateBounds" />
          </mxGeometry>
        </mxCell>
        <mxCell id="11f8AV2FICEe3owmwWPE-3" value="进入活动页" style="rounded=1;whiteSpace=wrap;html=1;shadow=0;labelBackgroundColor=none;strokeWidth=1;fontFamily=Verdana;fontSize=12;align=center;" vertex="1" parent="11f8AV2FICEe3owmwWPE-2">
          <mxGeometry x="30" y="65" width="100" height="60" as="geometry" />
        </mxCell>
        <mxCell id="11f8AV2FICEe3owmwWPE-4" value="活动结束页" style="rounded=1;whiteSpace=wrap;html=1;shadow=0;labelBackgroundColor=none;strokeWidth=1;fontFamily=Verdana;fontSize=12;align=center;" vertex="1" parent="11f8AV2FICEe3owmwWPE-2">
          <mxGeometry x="30" y="280" width="100" height="60" as="geometry" />
        </mxCell>
        <mxCell id="11f8AV2FICEe3owmwWPE-5" value="点击领取" style="rounded=1;whiteSpace=wrap;html=1;shadow=0;labelBackgroundColor=none;strokeWidth=1;fontFamily=Verdana;fontSize=12;align=center;" vertex="1" parent="11f8AV2FICEe3owmwWPE-2">
          <mxGeometry x="30" y="520" width="100" height="60" as="geometry" />
        </mxCell>
        <mxCell id="11f8AV2FICEe3owmwWPE-10" value="活动结束页" style="rounded=1;whiteSpace=wrap;html=1;shadow=0;labelBackgroundColor=none;strokeWidth=1;fontFamily=Verdana;fontSize=12;align=center;" vertex="1" parent="11f8AV2FICEe3owmwWPE-2">
          <mxGeometry x="30" y="615" width="100" height="60" as="geometry" />
        </mxCell>
        <mxCell id="11f8AV2FICEe3owmwWPE-50" value="活动页" style="rounded=1;whiteSpace=wrap;html=1;shadow=0;labelBackgroundColor=none;strokeWidth=1;fontFamily=Verdana;fontSize=12;align=center;" vertex="1" parent="11f8AV2FICEe3owmwWPE-2">
          <mxGeometry x="30" y="410" width="100" height="60" as="geometry" />
        </mxCell>
        <mxCell id="11f8AV2FICEe3owmwWPE-84" value="" style="edgeStyle=orthogonalEdgeStyle;rounded=0;orthogonalLoop=1;jettySize=auto;html=1;" edge="1" parent="11f8AV2FICEe3owmwWPE-2" source="11f8AV2FICEe3owmwWPE-50" target="11f8AV2FICEe3owmwWPE-5">
          <mxGeometry relative="1" as="geometry" />
        </mxCell>
        <mxCell id="11f8AV2FICEe3owmwWPE-112" value="已领过" style="rounded=1;whiteSpace=wrap;html=1;shadow=0;labelBackgroundColor=none;strokeWidth=1;fontFamily=Verdana;fontSize=12;align=center;" vertex="1" parent="11f8AV2FICEe3owmwWPE-2">
          <mxGeometry x="30" y="1085" width="100" height="60" as="geometry" />
        </mxCell>
        <mxCell id="11f8AV2FICEe3owmwWPE-128" value="领取成功" style="rounded=1;whiteSpace=wrap;html=1;shadow=0;labelBackgroundColor=none;strokeWidth=1;fontFamily=Verdana;fontSize=12;align=center;" vertex="1" parent="11f8AV2FICEe3owmwWPE-2">
          <mxGeometry x="30" y="1340" width="100" height="60" as="geometry" />
        </mxCell>
        <mxCell id="11f8AV2FICEe3owmwWPE-63" style="edgeStyle=orthogonalEdgeStyle;rounded=0;orthogonalLoop=1;jettySize=auto;html=1;" edge="1" parent="11f8AV2FICEe3owmwWPE-1" source="11f8AV2FICEe3owmwWPE-17">
          <mxGeometry relative="1" as="geometry">
            <mxPoint x="80" y="300" as="targetPoint" />
          </mxGeometry>
        </mxCell>
        <mxCell id="11f8AV2FICEe3owmwWPE-64" value="N" style="edgeLabel;html=1;align=center;verticalAlign=middle;resizable=0;points=[];" vertex="1" connectable="0" parent="11f8AV2FICEe3owmwWPE-63">
          <mxGeometry x="-0.8766" y="-1" relative="1" as="geometry">
            <mxPoint x="-8" y="1" as="offset" />
          </mxGeometry>
        </mxCell>
        <mxCell id="11f8AV2FICEe3owmwWPE-65" value="" style="edgeStyle=orthogonalEdgeStyle;rounded=0;orthogonalLoop=1;jettySize=auto;html=1;entryX=0.5;entryY=0;entryDx=0;entryDy=0;" edge="1" parent="11f8AV2FICEe3owmwWPE-1" source="11f8AV2FICEe3owmwWPE-5" target="11f8AV2FICEe3owmwWPE-22">
          <mxGeometry relative="1" as="geometry">
            <mxPoint x="285" y="640" as="targetPoint" />
          </mxGeometry>
        </mxCell>
        <mxCell id="11f8AV2FICEe3owmwWPE-13" value="后端" style="swimlane;html=1;startSize=20;" vertex="1" parent="11f8AV2FICEe3owmwWPE-1">
          <mxGeometry x="170" y="20" width="270" height="1450" as="geometry">
            <mxRectangle x="170" y="20" width="40" height="1450" as="alternateBounds" />
          </mxGeometry>
        </mxCell>
        <mxCell id="11f8AV2FICEe3owmwWPE-15" value="" style="edgeStyle=orthogonalEdgeStyle;rounded=0;orthogonalLoop=1;jettySize=auto;html=1;" edge="1" parent="11f8AV2FICEe3owmwWPE-13" source="11f8AV2FICEe3owmwWPE-16" target="11f8AV2FICEe3owmwWPE-17">
          <mxGeometry relative="1" as="geometry" />
        </mxCell>
        <mxCell id="11f8AV2FICEe3owmwWPE-16" value="查询端内活动" style="rounded=1;whiteSpace=wrap;html=1;shadow=0;labelBackgroundColor=none;strokeWidth=1;fontFamily=Verdana;fontSize=12;align=center;" vertex="1" parent="11f8AV2FICEe3owmwWPE-13">
          <mxGeometry x="85" y="65" width="100" height="60" as="geometry" />
        </mxCell>
        <mxCell id="11f8AV2FICEe3owmwWPE-17" value="在活动时间内？" style="rhombus;whiteSpace=wrap;html=1;rounded=0;shadow=0;labelBackgroundColor=none;strokeWidth=1;fontFamily=Verdana;fontSize=12;align=center;" vertex="1" parent="11f8AV2FICEe3owmwWPE-13">
          <mxGeometry x="85" y="180" width="100" height="70" as="geometry" />
        </mxCell>
        <mxCell id="11f8AV2FICEe3owmwWPE-22" value="在活动时间内？" style="rhombus;whiteSpace=wrap;html=1;rounded=0;shadow=0;labelBackgroundColor=none;strokeWidth=1;fontFamily=Verdana;fontSize=12;align=center;" vertex="1" parent="11f8AV2FICEe3owmwWPE-13">
          <mxGeometry x="85" y="610" width="100" height="70" as="geometry" />
        </mxCell>
        <mxCell id="11f8AV2FICEe3owmwWPE-23" value="查询会员领券记录" style="rounded=1;whiteSpace=wrap;html=1;shadow=0;labelBackgroundColor=none;strokeWidth=1;fontFamily=Verdana;fontSize=12;align=center;" vertex="1" parent="11f8AV2FICEe3owmwWPE-13">
          <mxGeometry x="85" y="740" width="100" height="60" as="geometry" />
        </mxCell>
        <mxCell id="11f8AV2FICEe3owmwWPE-25" value="按照抢购时间段分组优惠券" style="rounded=1;whiteSpace=wrap;html=1;shadow=0;labelBackgroundColor=none;strokeWidth=1;fontFamily=Verdana;fontSize=12;align=center;" vertex="1" parent="11f8AV2FICEe3owmwWPE-13">
          <mxGeometry x="85" y="320" width="100" height="60" as="geometry" />
        </mxCell>
        <mxCell id="11f8AV2FICEe3owmwWPE-26" style="edgeStyle=orthogonalEdgeStyle;rounded=0;orthogonalLoop=1;jettySize=auto;html=1;" edge="1" parent="11f8AV2FICEe3owmwWPE-13" source="11f8AV2FICEe3owmwWPE-17" target="11f8AV2FICEe3owmwWPE-25">
          <mxGeometry relative="1" as="geometry" />
        </mxCell>
        <mxCell id="11f8AV2FICEe3owmwWPE-27" value="Y" style="edgeLabel;html=1;align=center;verticalAlign=middle;resizable=0;points=[];" vertex="1" connectable="0" parent="11f8AV2FICEe3owmwWPE-26">
          <mxGeometry x="-0.3143" y="-1" relative="1" as="geometry">
            <mxPoint as="offset" />
          </mxGeometry>
        </mxCell>
        <mxCell id="11f8AV2FICEe3owmwWPE-103" value="" style="edgeStyle=orthogonalEdgeStyle;rounded=0;orthogonalLoop=1;jettySize=auto;html=1;" edge="1" parent="11f8AV2FICEe3owmwWPE-13" source="11f8AV2FICEe3owmwWPE-23" target="11f8AV2FICEe3owmwWPE-44">
          <mxGeometry relative="1" as="geometry">
            <mxPoint x="135" y="930" as="sourcePoint" />
          </mxGeometry>
        </mxCell>
        <mxCell id="11f8AV2FICEe3owmwWPE-43" value="Y" style="edgeStyle=orthogonalEdgeStyle;rounded=0;orthogonalLoop=1;jettySize=auto;html=1;" edge="1" parent="11f8AV2FICEe3owmwWPE-13" source="11f8AV2FICEe3owmwWPE-44" target="11f8AV2FICEe3owmwWPE-47">
          <mxGeometry x="-0.2" relative="1" as="geometry">
            <mxPoint as="offset" />
          </mxGeometry>
        </mxCell>
        <mxCell id="11f8AV2FICEe3owmwWPE-44" value="是否领取?" style="rhombus;whiteSpace=wrap;html=1;rounded=0;shadow=0;labelBackgroundColor=none;strokeWidth=1;fontFamily=Verdana;fontSize=12;align=center;" vertex="1" parent="11f8AV2FICEe3owmwWPE-13">
          <mxGeometry x="75" y="840" width="120" height="70" as="geometry" />
        </mxCell>
        <mxCell id="11f8AV2FICEe3owmwWPE-48" value="是否已过期？" style="rhombus;whiteSpace=wrap;html=1;rounded=0;shadow=0;labelBackgroundColor=none;strokeWidth=1;fontFamily=Verdana;fontSize=12;align=center;" vertex="1" parent="11f8AV2FICEe3owmwWPE-13">
          <mxGeometry x="75" y="1080" width="120" height="70" as="geometry" />
        </mxCell>
        <mxCell id="11f8AV2FICEe3owmwWPE-57" value="风控处理" style="rounded=1;whiteSpace=wrap;html=1;shadow=0;labelBackgroundColor=none;strokeWidth=1;fontFamily=Verdana;fontSize=12;align=center;" vertex="1" parent="11f8AV2FICEe3owmwWPE-13">
          <mxGeometry x="85" y="1230" width="100" height="60" as="geometry" />
        </mxCell>
        <mxCell id="11f8AV2FICEe3owmwWPE-106" style="edgeStyle=orthogonalEdgeStyle;rounded=0;orthogonalLoop=1;jettySize=auto;html=1;" edge="1" parent="11f8AV2FICEe3owmwWPE-13" source="11f8AV2FICEe3owmwWPE-47" target="11f8AV2FICEe3owmwWPE-48">
          <mxGeometry relative="1" as="geometry" />
        </mxCell>
        <mxCell id="11f8AV2FICEe3owmwWPE-107" value="N" style="edgeLabel;html=1;align=center;verticalAlign=middle;resizable=0;points=[];" vertex="1" connectable="0" parent="11f8AV2FICEe3owmwWPE-106">
          <mxGeometry x="-0.1667" y="-2" relative="1" as="geometry">
            <mxPoint x="2" y="-1" as="offset" />
          </mxGeometry>
        </mxCell>
        <mxCell id="11f8AV2FICEe3owmwWPE-47" value="是否已消费？" style="rhombus;whiteSpace=wrap;html=1;rounded=0;shadow=0;labelBackgroundColor=none;strokeWidth=1;fontFamily=Verdana;fontSize=12;align=center;" vertex="1" parent="11f8AV2FICEe3owmwWPE-13">
          <mxGeometry x="75" y="960" width="120" height="70" as="geometry" />
        </mxCell>
        <mxCell id="11f8AV2FICEe3owmwWPE-49" value="库存判断 &amp;gt; 0" style="shape=partialRectangle;html=1;top=1;align=left;dashed=1;fontSize=10;fillColor=#fff2cc;strokeColor=#d6b656;" vertex="1" parent="11f8AV2FICEe3owmwWPE-13">
          <mxGeometry x="60" y="1180" width="70" height="30" as="geometry" />
        </mxCell>
        <mxCell id="11f8AV2FICEe3owmwWPE-45" value="库存判断 &amp;gt; 0" style="shape=partialRectangle;html=1;top=1;align=left;dashed=1;fontSize=10;fillColor=#fff2cc;strokeColor=#d6b656;" vertex="1" parent="11f8AV2FICEe3owmwWPE-13">
          <mxGeometry x="195" y="830" width="70" height="30" as="geometry" />
        </mxCell>
        <mxCell id="11f8AV2FICEe3owmwWPE-55" style="edgeStyle=orthogonalEdgeStyle;rounded=0;orthogonalLoop=1;jettySize=auto;html=1;" edge="1" parent="11f8AV2FICEe3owmwWPE-13" source="11f8AV2FICEe3owmwWPE-48" target="11f8AV2FICEe3owmwWPE-57">
          <mxGeometry relative="1" as="geometry">
            <mxPoint x="135" y="1300" as="targetPoint" />
          </mxGeometry>
        </mxCell>
        <mxCell id="11f8AV2FICEe3owmwWPE-56" value="Y" style="edgeLabel;html=1;align=center;verticalAlign=middle;resizable=0;points=[];" vertex="1" connectable="0" parent="11f8AV2FICEe3owmwWPE-55">
          <mxGeometry x="-0.7733" y="2" relative="1" as="geometry">
            <mxPoint x="-2" y="11" as="offset" />
          </mxGeometry>
        </mxCell>
        <mxCell id="11f8AV2FICEe3owmwWPE-108" style="edgeStyle=orthogonalEdgeStyle;rounded=0;orthogonalLoop=1;jettySize=auto;html=1;entryX=0.5;entryY=0;entryDx=0;entryDy=0;" edge="1" parent="11f8AV2FICEe3owmwWPE-13" source="11f8AV2FICEe3owmwWPE-44" target="11f8AV2FICEe3owmwWPE-57">
          <mxGeometry relative="1" as="geometry">
            <Array as="points">
              <mxPoint x="240" y="875" />
              <mxPoint x="240" y="1190" />
              <mxPoint x="135" y="1190" />
            </Array>
          </mxGeometry>
        </mxCell>
        <mxCell id="11f8AV2FICEe3owmwWPE-109" value="N" style="edgeLabel;html=1;align=center;verticalAlign=middle;resizable=0;points=[];" vertex="1" connectable="0" parent="11f8AV2FICEe3owmwWPE-108">
          <mxGeometry x="-0.8953" y="-3" relative="1" as="geometry">
            <mxPoint x="-2" y="-3" as="offset" />
          </mxGeometry>
        </mxCell>
        <mxCell id="11f8AV2FICEe3owmwWPE-117" value="记录领券记录" style="rounded=1;whiteSpace=wrap;html=1;shadow=0;labelBackgroundColor=none;strokeWidth=1;fontFamily=Verdana;fontSize=12;align=center;" vertex="1" parent="11f8AV2FICEe3owmwWPE-13">
          <mxGeometry x="85" y="1340" width="100" height="60" as="geometry" />
        </mxCell>
        <mxCell id="11f8AV2FICEe3owmwWPE-79" value="coupon" style="swimlane;html=1;startSize=20;" vertex="1" parent="11f8AV2FICEe3owmwWPE-1">
          <mxGeometry x="440" y="20" width="160" height="1450" as="geometry" />
        </mxCell>
        <mxCell id="11f8AV2FICEe3owmwWPE-81" value="领取优惠券" style="rounded=1;whiteSpace=wrap;html=1;shadow=0;labelBackgroundColor=none;strokeWidth=1;fontFamily=Verdana;fontSize=12;align=center;" vertex="1" parent="11f8AV2FICEe3owmwWPE-79">
          <mxGeometry x="30" y="1230" width="100" height="60" as="geometry" />
        </mxCell>
        <mxCell id="11f8AV2FICEe3owmwWPE-98" value="获取优惠券信息" style="rounded=1;whiteSpace=wrap;html=1;shadow=0;labelBackgroundColor=none;strokeWidth=1;fontFamily=Verdana;fontSize=12;align=center;" vertex="1" parent="11f8AV2FICEe3owmwWPE-79">
          <mxGeometry x="30" y="615" width="100" height="60" as="geometry" />
        </mxCell>
        <mxCell id="11f8AV2FICEe3owmwWPE-85" style="edgeStyle=orthogonalEdgeStyle;rounded=0;orthogonalLoop=1;jettySize=auto;html=1;" edge="1" parent="11f8AV2FICEe3owmwWPE-1" source="11f8AV2FICEe3owmwWPE-22" target="11f8AV2FICEe3owmwWPE-10">
          <mxGeometry relative="1" as="geometry" />
        </mxCell>
        <mxCell id="11f8AV2FICEe3owmwWPE-86" value="N" style="edgeLabel;html=1;align=center;verticalAlign=middle;resizable=0;points=[];" vertex="1" connectable="0" parent="11f8AV2FICEe3owmwWPE-85">
          <mxGeometry x="-0.4667" y="2" relative="1" as="geometry">
            <mxPoint x="8" y="-2" as="offset" />
          </mxGeometry>
        </mxCell>
        <mxCell id="11f8AV2FICEe3owmwWPE-90" style="edgeStyle=orthogonalEdgeStyle;rounded=0;orthogonalLoop=1;jettySize=auto;html=1;exitX=0;exitY=0.5;exitDx=0;exitDy=0;entryX=1;entryY=0.5;entryDx=0;entryDy=0;" edge="1" parent="11f8AV2FICEe3owmwWPE-1" source="11f8AV2FICEe3owmwWPE-48" target="11f8AV2FICEe3owmwWPE-112">
          <mxGeometry relative="1" as="geometry">
            <mxPoint x="130" y="1530" as="targetPoint" />
            <Array as="points" />
          </mxGeometry>
        </mxCell>
        <mxCell id="11f8AV2FICEe3owmwWPE-91" value="N" style="edgeLabel;html=1;align=center;verticalAlign=middle;resizable=0;points=[];" vertex="1" connectable="0" parent="11f8AV2FICEe3owmwWPE-90">
          <mxGeometry x="-0.8786" y="1" relative="1" as="geometry">
            <mxPoint x="-28" y="-1" as="offset" />
          </mxGeometry>
        </mxCell>
        <mxCell id="11f8AV2FICEe3owmwWPE-24" style="edgeStyle=orthogonalEdgeStyle;rounded=0;orthogonalLoop=1;jettySize=auto;html=1;entryX=1;entryY=0.5;entryDx=0;entryDy=0;" edge="1" parent="11f8AV2FICEe3owmwWPE-1" source="11f8AV2FICEe3owmwWPE-25" target="11f8AV2FICEe3owmwWPE-50">
          <mxGeometry relative="1" as="geometry">
            <Array as="points">
              <mxPoint x="305" y="460" />
            </Array>
          </mxGeometry>
        </mxCell>
        <mxCell id="11f8AV2FICEe3owmwWPE-99" style="edgeStyle=orthogonalEdgeStyle;rounded=0;orthogonalLoop=1;jettySize=auto;html=1;" edge="1" parent="11f8AV2FICEe3owmwWPE-1" source="11f8AV2FICEe3owmwWPE-22" target="11f8AV2FICEe3owmwWPE-98">
          <mxGeometry relative="1" as="geometry" />
        </mxCell>
        <mxCell id="11f8AV2FICEe3owmwWPE-100" value="Y" style="edgeLabel;html=1;align=center;verticalAlign=middle;resizable=0;points=[];" vertex="1" connectable="0" parent="11f8AV2FICEe3owmwWPE-99">
          <mxGeometry x="-0.9392" y="-3" relative="1" as="geometry">
            <mxPoint x="16" y="-3" as="offset" />
          </mxGeometry>
        </mxCell>
        <mxCell id="11f8AV2FICEe3owmwWPE-101" style="edgeStyle=orthogonalEdgeStyle;rounded=0;orthogonalLoop=1;jettySize=auto;html=1;entryX=1;entryY=0.5;entryDx=0;entryDy=0;" edge="1" parent="11f8AV2FICEe3owmwWPE-1" source="11f8AV2FICEe3owmwWPE-98" target="11f8AV2FICEe3owmwWPE-23">
          <mxGeometry relative="1" as="geometry">
            <Array as="points">
              <mxPoint x="520" y="790" />
            </Array>
          </mxGeometry>
        </mxCell>
        <mxCell id="11f8AV2FICEe3owmwWPE-113" style="edgeStyle=orthogonalEdgeStyle;rounded=0;orthogonalLoop=1;jettySize=auto;html=1;entryX=0.5;entryY=0;entryDx=0;entryDy=0;" edge="1" parent="11f8AV2FICEe3owmwWPE-1" source="11f8AV2FICEe3owmwWPE-47" target="11f8AV2FICEe3owmwWPE-112">
          <mxGeometry relative="1" as="geometry" />
        </mxCell>
        <mxCell id="11f8AV2FICEe3owmwWPE-114" value="Y" style="edgeLabel;html=1;align=center;verticalAlign=middle;resizable=0;points=[];" vertex="1" connectable="0" parent="11f8AV2FICEe3owmwWPE-113">
          <mxGeometry x="-0.4957" y="-2" relative="1" as="geometry">
            <mxPoint x="29" y="2" as="offset" />
          </mxGeometry>
        </mxCell>
        <mxCell id="11f8AV2FICEe3owmwWPE-115" style="edgeStyle=orthogonalEdgeStyle;rounded=0;orthogonalLoop=1;jettySize=auto;html=1;" edge="1" parent="11f8AV2FICEe3owmwWPE-1" source="11f8AV2FICEe3owmwWPE-57" target="11f8AV2FICEe3owmwWPE-81">
          <mxGeometry relative="1" as="geometry" />
        </mxCell>
        <mxCell id="11f8AV2FICEe3owmwWPE-118" style="edgeStyle=orthogonalEdgeStyle;rounded=0;orthogonalLoop=1;jettySize=auto;html=1;" edge="1" parent="11f8AV2FICEe3owmwWPE-1" source="11f8AV2FICEe3owmwWPE-81" target="11f8AV2FICEe3owmwWPE-117">
          <mxGeometry relative="1" as="geometry">
            <Array as="points">
              <mxPoint x="520" y="1390" />
            </Array>
          </mxGeometry>
        </mxCell>
        <mxCell id="11f8AV2FICEe3owmwWPE-129" style="edgeStyle=orthogonalEdgeStyle;rounded=0;orthogonalLoop=1;jettySize=auto;html=1;" edge="1" parent="11f8AV2FICEe3owmwWPE-1" source="11f8AV2FICEe3owmwWPE-117" target="11f8AV2FICEe3owmwWPE-128">
          <mxGeometry relative="1" as="geometry" />
        </mxCell>
      </root>
    </mxGraphModel>
  </diagram>
</mxfile>
